<mxfile host="app.diagrams.net" modified="2021-06-07T10:16:25.695Z" agent="5.0 (Macintosh; Intel Mac OS X 10_15_7) AppleWebKit/537.36 (KHTML, like Gecko) Chrome/91.0.4472.77 Safari/537.36" etag="3vHl1hVGlZt4hGWikKxA" version="14.7.6" type="github">
  <diagram id="8qm1Al-J3_sIOt_E5meh" name="Page-1">
    <mxGraphModel dx="2020" dy="769" grid="1" gridSize="10" guides="1" tooltips="1" connect="1" arrows="1" fold="1" page="1" pageScale="1" pageWidth="850" pageHeight="1100" math="0" shadow="0">
      <root>
        <mxCell id="0" />
        <mxCell id="1" parent="0" />
        <mxCell id="xMS7sPu5bB_sa_6tIexu-6" value="Devices" style="rounded=0;whiteSpace=wrap;html=1;" parent="1" vertex="1">
          <mxGeometry x="570" y="210" width="120" height="60" as="geometry" />
        </mxCell>
        <mxCell id="xMS7sPu5bB_sa_6tIexu-5" value="Sensor" style="rounded=0;whiteSpace=wrap;html=1;" parent="1" vertex="1">
          <mxGeometry x="570" y="90" width="120" height="60" as="geometry" />
        </mxCell>
        <mxCell id="xMS7sPu5bB_sa_6tIexu-7" style="edgeStyle=orthogonalEdgeStyle;rounded=0;orthogonalLoop=1;jettySize=auto;html=1;entryX=0;entryY=0.5;entryDx=0;entryDy=0;startArrow=classic;startFill=1;" parent="1" source="xMS7sPu5bB_sa_6tIexu-1" target="xMS7sPu5bB_sa_6tIexu-3" edge="1">
          <mxGeometry relative="1" as="geometry" />
        </mxCell>
        <mxCell id="xMS7sPu5bB_sa_6tIexu-1" value="ESPHome&lt;br&gt;Hub" style="rounded=0;whiteSpace=wrap;html=1;" parent="1" vertex="1">
          <mxGeometry x="340" y="140" width="120" height="60" as="geometry" />
        </mxCell>
        <mxCell id="xMS7sPu5bB_sa_6tIexu-9" style="edgeStyle=orthogonalEdgeStyle;rounded=0;orthogonalLoop=1;jettySize=auto;html=1;exitX=1;exitY=0.5;exitDx=0;exitDy=0;entryX=0;entryY=0.5;entryDx=0;entryDy=0;startArrow=classic;startFill=1;" parent="1" source="xMS7sPu5bB_sa_6tIexu-2" target="xMS7sPu5bB_sa_6tIexu-1" edge="1">
          <mxGeometry relative="1" as="geometry" />
        </mxCell>
        <mxCell id="xMS7sPu5bB_sa_6tIexu-10" value="WiFI" style="edgeLabel;html=1;align=center;verticalAlign=middle;resizable=0;points=[];" parent="xMS7sPu5bB_sa_6tIexu-9" vertex="1" connectable="0">
          <mxGeometry x="-0.1455" y="1" relative="1" as="geometry">
            <mxPoint x="3" y="-9" as="offset" />
          </mxGeometry>
        </mxCell>
        <mxCell id="xMS7sPu5bB_sa_6tIexu-2" value="Home Assistant" style="rounded=0;whiteSpace=wrap;html=1;" parent="1" vertex="1">
          <mxGeometry x="110" y="140" width="120" height="60" as="geometry" />
        </mxCell>
        <mxCell id="xMS7sPu5bB_sa_6tIexu-3" value="Sensors" style="rounded=0;whiteSpace=wrap;html=1;" parent="1" vertex="1">
          <mxGeometry x="560" y="80" width="120" height="60" as="geometry" />
        </mxCell>
        <mxCell id="xMS7sPu5bB_sa_6tIexu-8" style="edgeStyle=orthogonalEdgeStyle;rounded=0;orthogonalLoop=1;jettySize=auto;html=1;exitX=0;exitY=0.5;exitDx=0;exitDy=0;entryX=0;entryY=0.5;entryDx=0;entryDy=0;" parent="1" target="xMS7sPu5bB_sa_6tIexu-4" edge="1">
          <mxGeometry relative="1" as="geometry">
            <mxPoint x="460" y="170" as="sourcePoint" />
            <Array as="points">
              <mxPoint x="510" y="170" />
              <mxPoint x="510" y="230" />
            </Array>
          </mxGeometry>
        </mxCell>
        <mxCell id="xMS7sPu5bB_sa_6tIexu-4" value="Components" style="rounded=0;whiteSpace=wrap;html=1;" parent="1" vertex="1">
          <mxGeometry x="560" y="200" width="120" height="60" as="geometry" />
        </mxCell>
        <mxCell id="xMS7sPu5bB_sa_6tIexu-11" value="Wireless" style="text;html=1;align=center;verticalAlign=middle;resizable=0;points=[];autosize=1;" parent="1" vertex="1">
          <mxGeometry x="510" y="160" width="60" height="20" as="geometry" />
        </mxCell>
      </root>
    </mxGraphModel>
  </diagram>
</mxfile>
